<svg xmlns="http://www.w3.org/2000/svg" viewBox="0 0 512 512" role="img" aria-label="Lappa app icon">
  <defs>
    <linearGradient id="bg" x1="64" y1="48" x2="448" y2="464" gradientUnits="userSpaceOnUse">
      <stop offset="0" stop-color="#111827"/>
      <stop offset="1" stop-color="#050914"/>
    </linearGradient>
    <linearGradient id="path" x1="126" y1="126" x2="386" y2="386" gradientUnits="userSpaceOnUse">
      <stop offset="0" stop-color="#7dd3fc"/>
      <stop offset="0.55" stop-color="#388bfd"/>
      <stop offset="1" stop-color="#44c767"/>
    </linearGradient>
    <filter id="shadow" x="-20%" y="-20%" width="140%" height="140%">
      <feDropShadow dx="0" dy="18" stdDeviation="18" flood-color="#000" flood-opacity=".35"/>
    </filter>
  </defs>
  <rect x="32" y="32" width="448" height="448" rx="94" fill="url(#bg)"/>
  <rect x="49" y="49" width="414" height="414" rx="78" fill="none" stroke="#263449" stroke-width="10"/>
  <g opacity=".9">
    <rect x="92" y="112" width="44" height="288" rx="18" fill="#0b1020" stroke="#263449" stroke-width="8"/>
    <rect x="166" y="112" width="120" height="32" rx="12" fill="#172033"/>
    <rect x="166" y="168" width="178" height="20" rx="10" fill="#172033"/>
    <rect x="166" y="210" width="132" height="20" rx="10" fill="#172033"/>
    <circle cx="368" cy="158" r="42" fill="#0b1020" stroke="#263449" stroke-width="8"/>
    <path d="M344 158h48M368 134v48" stroke="#31435d" stroke-width="7" stroke-linecap="round"/>
  </g>
  <g filter="url(#shadow)">
    <path d="M184 132v196c0 25 19 44 44 44h132" fill="none" stroke="url(#path)" stroke-width="42" stroke-linecap="round" stroke-linejoin="round"/>
    <circle cx="184" cy="132" r="34" fill="#7dd3fc" stroke="#e5f5ff" stroke-width="10"/>
    <circle cx="360" cy="372" r="34" fill="#44c767" stroke="#eafff0" stroke-width="10"/>
    <circle cx="184" cy="132" r="10" fill="#08111f"/>
    <circle cx="360" cy="372" r="10" fill="#08111f"/>
  </g>
  <path d="M314 318l58-28 58 28-58 28-58-28zM314 318v48l58 30 58-30v-48" fill="none" stroke="#7dd3fc" stroke-width="10" stroke-linejoin="round" opacity=".95"/>
</svg>
